<svg version="1.2" baseProfile="tiny-ps" xmlns="http://www.w3.org/2000/svg" viewBox="0 0 1500 1500" width="750" height="750">
	<title>3293464-ai</title>
	<style>
		tspan { white-space:pre }
		.shp0 { fill: #ebebeb } 
		.shp1 { fill: #e6e6e6 } 
		.shp2 { fill: #f0f0f0 } 
		.shp3 { fill: #ffffff } 
		.shp4 { fill: #e0e0e0 } 
		.shp5 { fill: #f5f5f5 } 
		.shp6 { fill: #fafafa } 
		.shp7 { fill: #407bff } 
		.shp8 { opacity: 0.302;fill: #ffffff } 
		.shp9 { opacity: 0.6;fill: #407bff } 
		.shp10 { fill: #263238 } 
		.shp11 { fill: #ff8b7b } 
		.shp12 { fill: #ff5652 } 
		.shp13 { opacity: 0.2;fill: #000000 } 
		.shp14 { opacity: 0.4;fill: #000000 } 
		.shp15 { opacity: 0.302;fill: #000000 } 
		.shp16 { opacity: 0.302;fill: #407bff } 
	</style>
	<g id="Background Complete">
		<g id="&lt;Group&gt;">
			<path id="&lt;Path&gt;" class="shp0" d="M1500 1147.95L0 1147.95L0 1147.2L1500 1147.2L1500 1147.95Z" />
			<path id="&lt;Path&gt;" class="shp0" d="M870.62 1168.37L947 1168.37L947 1167.62L870.62 1167.62L870.62 1168.37Z" />
			<path id="&lt;Path&gt;" class="shp0" d="M1185.33 1184.61L1366.33 1184.61L1366.33 1183.86L1185.33 1183.86L1185.33 1184.61Z" />
			<path id="&lt;Path&gt;" class="shp0" d="M667.38 1168.75L854.38 1168.75L854.38 1168L667.38 1168L667.38 1168.75Z" />
			<path id="&lt;Path&gt;" class="shp0" d="M507 1191.19L546.12 1191.19L546.12 1190.44L507 1190.44L507 1191.19Z" />
			<path id="&lt;Path&gt;" class="shp0" d="M584.12 1191.19L762.25 1191.19L762.25 1190.44L584.12 1190.44L584.12 1191.19Z" />
			<path id="&lt;Path&gt;" class="shp0" d="M157.38 1178.53L272.74 1178.53L272.74 1177.78L157.38 1177.78L157.38 1178.53Z" />
			<path id="&lt;Compound Path&gt;" fill-rule="evenodd" class="shp0" d="M711.04 1013.4L131.75 1013.4C122.3 1013.4 114.62 1005.72 114.62 996.28L114.62 181.98C114.62 172.54 122.3 164.86 131.75 164.86L711.04 164.86C720.48 164.86 728.16 172.54 728.16 181.98L728.16 996.28C728.16 1005.72 720.48 1013.4 711.04 1013.4ZM131.75 165.61C122.72 165.61 115.37 172.95 115.37 181.98L115.37 996.28C115.37 1005.3 122.72 1012.65 131.75 1012.65L711.04 1012.65C720.07 1012.65 727.41 1005.3 727.41 996.28L727.41 181.98C727.41 172.95 720.07 165.61 711.04 165.61L131.75 165.61Z" />
			<path id="&lt;Compound Path&gt;" fill-rule="evenodd" class="shp0" d="M1359.93 1013.4L780.64 1013.4C771.2 1013.4 763.51 1005.72 763.51 996.28L763.51 181.98C763.51 172.54 771.2 164.86 780.64 164.86L1359.93 164.86C1369.37 164.86 1377.06 172.54 1377.06 181.98L1377.06 996.28C1377.06 1005.72 1369.37 1013.4 1359.93 1013.4ZM780.64 165.61C771.61 165.61 764.26 172.95 764.26 181.98L764.26 996.28C764.26 1005.3 771.61 1012.65 780.64 1012.65L1359.93 1012.65C1368.96 1012.65 1376.31 1005.3 1376.31 996.28L1376.31 181.98C1376.31 172.95 1368.96 165.61 1359.93 165.61L780.64 165.61Z" />
		</g>
		<g id="&lt;Group&gt;">
			<g id="&lt;Group&gt;">
				<g id="&lt;Group&gt;">
					<path id="&lt;Path&gt;" class="shp1" d="M587.89 887L388.68 887L376.59 747.5L575.79 747.5L587.89 887Z" />
					<path id="&lt;Path&gt;" class="shp2" d="M598.2 887L399 887L386.91 747.5L586.11 747.5L598.2 887Z" />
					<path id="&lt;Path&gt;" class="shp3" d="M426.23 857.04L419.59 777.46L558.88 777.46L565.52 857.04L426.23 857.04Z" />
				</g>
				<g id="&lt;Group&gt;">
					<path id="&lt;Path&gt;" class="shp1" d="M632.67 1147.19L609.3 1147.19L609.3 887L632.67 887L632.67 1147.19Z" />
					<path id="&lt;Path&gt;" class="shp2" d="M640.05 1147.19L623.81 1147.19L623.81 887L640.05 887L640.05 1147.19Z" />
					<path id="&lt;Path&gt;" class="shp2" d="M413.82 915.72L640.05 915.72L640.05 887L413.82 887L413.82 915.72Z" />
					<path id="&lt;Path&gt;" class="shp1" d="M421.82 1147.19L398.44 1147.19L398.44 915.72L421.82 915.72L421.82 1147.19Z" />
					<path id="&lt;Path&gt;" class="shp2" d="M429.19 1147.19L412.96 1147.19L412.96 915.72L429.19 915.72L429.19 1147.19Z" />
					<path id="&lt;Path&gt;" class="shp1" d="M255.44 1147.19L232.07 1147.19L232.07 915.72L255.44 915.72L255.44 1147.19Z" />
					<path id="&lt;Path&gt;" class="shp2" d="M262.82 1147.19L246.59 1147.19L246.59 915.72L262.82 915.72L262.82 1147.19Z" />
					<path id="&lt;Path&gt;" class="shp1" d="M484.76 1147.19L461.39 1147.19L461.39 915.72L484.76 915.72L484.76 1147.19Z" />
					<path id="&lt;Path&gt;" class="shp2" d="M492.14 1147.19L475.9 1147.19L475.9 915.72L492.14 915.72L492.14 1147.19Z" />
					<path id="&lt;Path&gt;" class="shp1" d="M413.82 915.72L232.07 915.72L232.07 887L413.82 887L413.82 915.72Z" />
				</g>
			</g>
			<g id="&lt;Group&gt;">
				<g id="&lt;Group&gt;">
					<path id="&lt;Path&gt;" class="shp4" d="M1091.52 629.61L388.53 629.61L388.53 238.24L1091.52 238.24L1091.52 629.61Z" />
					<path id="&lt;Path&gt;" class="shp5" d="M1130.12 629.61L392.07 629.61L392.07 238.24L1130.12 238.24L1130.12 629.61Z" />
					<path id="&lt;Path&gt;" class="shp3" d="M1118.06 617.55L1118.06 250.3L404.13 250.3L404.13 617.55L1118.06 617.55Z" />
					<path id="&lt;Path&gt;" class="shp5" d="M693.2 617.55L827.99 250.3L605.54 250.3L470.75 617.55L693.2 617.55Z" />
					<path id="&lt;Path&gt;" class="shp5" d="M907.32 617.55L1042.11 250.3L874.3 250.3L739.51 617.55L907.32 617.55Z" />
				</g>
			</g>
			<g id="&lt;Group&gt;">
				<g id="&lt;Group&gt;">
					<path id="&lt;Path&gt;" class="shp1" d="M1314.33 1147.2L1254.58 1147.2L1254.58 773.41L1314.33 773.41L1314.33 1147.2Z" />
					<path id="&lt;Path&gt;" class="shp6" d="M1298.62 1147.2L1314.33 1147.2L1314.33 1118.41L1282.15 1118.41L1298.62 1147.2Z" />
					<path id="&lt;Path&gt;" class="shp1" d="M763.36 1147.2L703.61 1147.2L703.61 773.41L763.36 773.41L763.36 1147.2Z" />
					<path id="&lt;Path&gt;" class="shp6" d="M1314.33 1139.43L749.65 1139.43L749.65 773.41L1314.33 773.41L1314.33 1139.43Z" />
					<path id="&lt;Compound Path&gt;" fill-rule="evenodd" class="shp1" d="M1303.64 891.51L760.34 891.51L760.34 788.13L1303.64 788.13L1303.64 891.51ZM763.34 888.51L1300.64 888.51L1300.64 791.13L763.34 791.13L763.34 888.51Z" />
					<path id="&lt;Compound Path&gt;" fill-rule="evenodd" class="shp1" d="M1208 838.32L866.53 838.32C850.68 838.32 835.41 825.53 824.65 803.23L823.62 801.08L1250.92 801.08L1249.88 803.23C1239.13 825.53 1223.86 838.32 1208 838.32ZM828.42 804.08C838.57 823.97 852.38 835.32 866.53 835.32L1208 835.32C1222.16 835.32 1235.96 823.97 1246.12 804.08L828.42 804.08Z" />
					<path id="&lt;Path&gt;" class="shp6" d="M765.36 1147.2L749.65 1147.2L749.65 1118.41L781.84 1118.41L765.36 1147.2Z" />
					<path id="&lt;Compound Path&gt;" fill-rule="evenodd" class="shp1" d="M1303.64 1008.11L760.34 1008.11L760.34 904.73L1303.64 904.73L1303.64 1008.11ZM763.34 1005.11L1300.64 1005.11L1300.64 907.73L763.34 907.73L763.34 1005.11Z" />
					<path id="&lt;Compound Path&gt;" fill-rule="evenodd" class="shp1" d="M1208 954.92L866.53 954.92C850.68 954.92 835.41 942.13 824.65 919.83L823.62 917.68L1250.92 917.68L1249.88 919.83C1239.13 942.13 1223.86 954.92 1208 954.92ZM828.42 920.68C838.57 940.57 852.38 951.92 866.53 951.92L1208 951.92C1222.16 951.92 1235.96 940.57 1246.12 920.68L828.42 920.68Z" />
					<path id="&lt;Compound Path&gt;" fill-rule="evenodd" class="shp1" d="M1303.64 1124.71L760.34 1124.71L760.34 1021.33L1303.64 1021.33L1303.64 1124.71ZM763.34 1121.71L1300.64 1121.71L1300.64 1024.33L763.34 1024.33L763.34 1121.71Z" />
					<path id="&lt;Compound Path&gt;" fill-rule="evenodd" class="shp1" d="M1208 1071.52L866.53 1071.52C850.68 1071.52 835.41 1058.73 824.65 1036.43L823.62 1034.27L1250.92 1034.27L1249.88 1036.43C1239.13 1058.73 1223.86 1071.52 1208 1071.52ZM828.42 1037.27C838.57 1057.17 852.38 1068.52 866.53 1068.52L1208 1068.52C1222.16 1068.52 1235.96 1057.17 1246.12 1037.27L828.42 1037.27Z" />
				</g>
			</g>
			<g id="&lt;Group&gt;">
				<path id="&lt;Path&gt;" class="shp1" d="M362.95 822.85L362.95 830.1L358.3 830.1L354.47 887L297.97 887L294.14 830.1L289.49 830.1L289.49 822.85L362.95 822.85Z" />
				<path id="&lt;Path&gt;" class="shp1" d="M344.35 681.63C339.71 647.74 293.97 638.06 235.93 636.82C199.1 636.03 174.8 629.12 163 616.1C163.12 668.85 189.7 704.78 242.76 723.89C318.34 751.09 349 715.58 344.35 681.63Z" />
				<path id="&lt;Path&gt;" class="shp1" d="M316.14 758.47C317.11 744.53 339.36 718.91 392.9 730.56C418.7 736.17 436.41 732.29 446 718.91C443.61 756.67 423.01 781.23 384.2 792.58C328.91 808.75 314.43 782.99 316.14 758.47Z" />
				<path id="&lt;Path&gt;" class="shp1" d="M328.35 844.21C328.94 844.21 329.52 843.96 329.93 843.48C333.81 838.89 330.63 827.91 326.24 812.71C320.6 793.19 313.58 768.91 319.53 751.28C322.88 741.33 327.03 732.55 331.04 724.06C339.45 706.29 346.7 690.94 340.65 674.92C340.25 673.85 339.06 673.31 337.99 673.71C336.93 674.12 336.39 675.31 336.79 676.37C342.22 690.76 335.64 704.68 327.31 722.3C323.44 730.49 319.05 739.78 315.61 749.96C309.26 768.82 316.47 793.79 322.27 813.85C325.69 825.68 329.23 837.92 326.78 840.81C326.04 841.68 326.15 842.99 327.02 843.72C327.41 844.05 327.88 844.21 328.35 844.21Z" />
			</g>
		</g>
	</g>
	<g id="Shadow">
		<path id="&lt;Path&gt; 191 " class="shp5" d="M1331.67 1248.71C1331.67 1267.48 1071.25 1282.68 750 1282.68C428.75 1282.68 168.33 1267.48 168.33 1248.71C168.33 1229.95 428.75 1214.74 750 1214.74C1071.25 1214.74 1331.67 1229.95 1331.67 1248.71Z" />
	</g>
	<g id="Login">
		<g id="&lt;Group&gt;">
			<path id="&lt;Path&gt;" class="shp7" d="M749.88 1083.14L323.88 1083.14L300.56 398.04L726.56 398.04L749.88 1083.14Z" />
			<g id="&lt;Group&gt;">
				<path id="&lt;Path&gt;" class="shp7" d="M771.14 1061.88L345.14 1061.88L321.82 376.78L747.82 376.78L771.14 1061.88Z" />
				<path id="&lt;Path&gt;" class="shp8" d="M771.14 1061.88L345.14 1061.88L321.82 376.78L747.82 376.78L771.14 1061.88Z" />
			</g>
			<g id="&lt;Group&gt;">
				<path id="&lt;Path&gt;" class="shp7" d="M661.34 573.28C663.59 639.46 611.77 693.11 545.59 693.11C479.41 693.11 423.93 639.46 421.68 573.28C419.43 507.1 471.25 453.45 537.43 453.45C603.61 453.45 659.09 507.1 661.34 573.28Z" />
				<path id="&lt;Path&gt;" class="shp3" d="M640.41 573.27C640.99 590.35 637.2 606.38 630.06 620.38C614.43 651.2 582.47 672.16 544.87 672.16C507.28 672.16 473.9 651.2 456.17 620.38C448.07 606.38 443.19 590.35 442.61 573.27C440.75 518.64 483.51 474.37 538.14 474.37C592.77 474.37 638.55 518.64 640.41 573.27Z" />
				<path id="&lt;Path&gt;" class="shp9" d="M630.06 620.38C614.43 651.2 582.47 672.16 544.87 672.16C507.28 672.16 473.9 651.2 456.17 620.38C480.5 603.74 510.05 594.03 542.22 594.03C574.38 594.03 604.59 603.74 630.06 620.38Z" />
				<path id="&lt;Path&gt;" class="shp9" d="M584.41 539.43C585.24 563.76 566.19 583.49 541.86 583.49C517.53 583.49 497.13 563.76 496.31 539.43C495.48 515.1 514.53 495.38 538.86 495.38C563.19 495.38 583.58 515.1 584.41 539.43Z" />
			</g>
			<path id="&lt;Path&gt;" class="shp3" d="M685.57 813.78L413.82 813.78L411.98 759.78L683.74 759.78L685.57 813.78Z" />
			<path id="&lt;Path&gt;" class="shp3" d="M688.86 910.3L417.1 910.3L415.27 856.3L687.02 856.3L688.86 910.3Z" />
			<path id="&lt;Compound Path&gt;" fill-rule="evenodd" class="shp7" d="M589.79 867.82L598.39 911.7C598.9 914.32 597.13 916.76 594.44 917.12L528.95 926.03C526.26 926.39 523.65 924.55 523.14 921.93L514.54 878.05C514.03 875.45 515.8 872.99 518.49 872.63L583.98 863.72C586.66 863.36 589.28 865.21 589.79 867.82ZM560.86 894.44C562.83 892.72 563.71 890.11 563.19 887.47C562.35 883.18 558.09 880.18 553.7 880.78C549.3 881.38 546.4 885.35 547.24 889.64C547.76 892.28 549.59 894.52 552.11 895.63L553.3 909.79L565.16 908.18L560.86 894.44Z" />
			<path id="&lt;Path&gt;" class="shp7" d="M577.51 861.37C575.12 861.7 572.81 860.07 572.35 857.74L571.51 853.44C569.19 841.62 557.89 832.7 545.65 833.76C532.57 834.9 523.8 846.45 526.25 858.94L527.22 863.88C527.67 866.21 526.1 868.36 523.71 868.69C521.32 869.01 519.01 867.39 518.55 865.06L517.73 860.87C514.5 844.39 524.87 828.55 541.65 825.63C559.29 822.56 576.69 834.46 580.05 851.63L581.02 856.56C581.47 858.89 579.9 861.05 577.51 861.37Z" />
			<path id="&lt;Path&gt;" class="shp7" d="M644 985.92L467.11 985.92L465.91 950.77L642.8 950.77L644 985.92Z" />
			<path id="&lt;Path&gt;" class="shp10" d="M558.65 786.78C558.84 792.24 554.57 796.66 549.11 796.66C543.66 796.66 539.09 792.24 538.9 786.78C538.71 781.33 542.99 776.91 548.44 776.91C553.9 776.91 558.47 781.33 558.65 786.78Z" />
			<path id="&lt;Path&gt;" class="shp10" d="M516.13 786.78C516.32 792.24 512.05 796.66 506.59 796.66C501.14 796.66 496.57 792.24 496.38 786.78C496.19 781.33 500.47 776.91 505.92 776.91C511.38 776.91 515.95 781.33 516.13 786.78Z" />
			<path id="&lt;Path&gt;" class="shp10" d="M473.61 786.78C473.8 792.24 469.53 796.66 464.07 796.66C458.62 796.66 454.05 792.24 453.86 786.78C453.68 781.33 457.95 776.91 463.4 776.91C468.86 776.91 473.43 781.33 473.61 786.78Z" />
			<path id="&lt;Path&gt;" class="shp10" d="M601.17 786.78C601.36 792.24 597.09 796.66 591.63 796.66C586.18 796.66 581.61 792.24 581.42 786.78C581.23 781.33 585.51 776.91 590.96 776.91C596.42 776.91 600.99 781.33 601.17 786.78Z" />
			<path id="&lt;Path&gt;" class="shp10" d="M643.69 786.78C643.88 792.24 639.61 796.66 634.15 796.66C628.7 796.66 624.13 792.24 623.94 786.78C623.75 781.33 628.03 776.91 633.48 776.91C638.94 776.91 643.51 781.33 643.69 786.78Z" />
		</g>
	</g>
	<g id="Character">
		<g id="&lt;Group&gt;">
			<path id="&lt;Path&gt;" class="shp11" d="M1001.73 522.84C1005.73 529.25 1009.04 535.39 1012.47 541.78C1015.89 548.09 1018.98 554.59 1022.01 561.14C1027.97 574.29 1033.31 587.86 1037.31 602.34C1037.84 604.12 1038.25 606 1038.69 607.84L1039.35 610.62L1039.68 612.01L1040.06 614.29C1040.92 620.39 1040.17 625.36 1039.13 629.75C1036.98 638.49 1033.51 645.46 1029.79 652.12C1022.21 665.29 1013.35 676.51 1003.14 687.13L990.5 677.57C996.73 665.75 1002.89 653.37 1007.41 641.46C1009.61 635.54 1011.45 629.51 1011.99 624.56C1012.26 622.13 1012.08 620.04 1011.75 619.26L1010.56 615.6C1010.07 614.09 1009.63 612.59 1009.04 611.08C1004.71 598.97 999.21 586.81 993.23 574.82C987.33 562.88 980.79 550.72 974.35 539.37L1001.73 522.84Z" />
			<path id="&lt;Path&gt;" class="shp11" d="M993.71 673.28L979.93 680.59L995.77 699.13C1002.36 694.67 1005.8 689.04 1006.1 682.23L993.71 673.28Z" />
			<path id="&lt;Path&gt;" class="shp11" d="M961.4 692.02L978.37 705.48L995.77 699.13L979.93 680.59L961.4 692.02Z" />
			<path id="&lt;Path&gt;" class="shp10" d="M903.45 424.69C903.11 426.36 901.96 427.53 900.86 427.31C899.77 427.09 899.17 425.56 899.5 423.89C899.84 422.22 901 421.05 902.09 421.27C903.18 421.49 903.79 423.03 903.45 424.69Z" />
			<path id="&lt;Path&gt;" class="shp12" d="M902.11 427.57C898.28 433.47 894.65 437.68 891.24 440.21C892.84 442.45 895.39 443.48 898.9 443.33L902.11 427.57Z" />
			<path id="&lt;Path&gt;" class="shp11" d="M896.7 486.41L896.83 466.75L922.87 469.9C922.57 481.17 917.58 488.46 907.88 491.78L896.7 486.41Z" />
			<path id="&lt;Path&gt;" class="shp11" d="M904.19 452.59L922.52 457.86L922.87 469.9L896.83 466.75L904.19 452.59Z" />
			<path id="&lt;Path&gt;" class="shp13" d="M922.53 457.86L904.2 452.58L900.63 459.42C901.08 471.03 908.16 480.57 917.55 484.86C920.95 480.4 922.72 475.41 922.86 469.89L922.53 457.86Z" />
			<path id="&lt;Path&gt;" class="shp10" d="M911.44 416.67C911.68 416.67 911.93 416.59 912.12 416.41C912.53 416.03 912.55 415.4 912.18 415C908.42 410.93 903.87 411.65 903.67 411.69C903.13 411.78 902.76 412.3 902.85 412.84C902.95 413.38 903.47 413.75 904 413.66C904.15 413.64 907.71 413.11 910.71 416.35C910.9 416.57 911.17 416.67 911.44 416.67Z" />
			<path id="&lt;Path&gt;" class="shp11" d="M949.77 455.05C946.75 470.49 944.92 491.87 955.72 502.18C952.9 512.62 941.94 517.84 922.81 517.84C901.79 517.84 896.73 513.25 907.64 504.09C920.75 500.02 920.64 485.09 917.64 473.09L949.77 455.05Z" />
			<path id="&lt;Path&gt;" class="shp7" d="M961.63 512.5C964.43 508.52 964.32 495.95 961.32 493.74C956.48 490.16 935.77 489.33 907.88 495.75C909.88 503.87 908.74 510.05 904.45 514.3L961.63 512.5Z" />
			<path id="&lt;Compound Path&gt;" fill-rule="evenodd" class="shp7" d="M1055.39 1224.71C1053.27 1225.17 1051.15 1225.29 1050.13 1224.42C1049.71 1224.06 1049.27 1223.36 1049.65 1222.1C1049.85 1221.44 1050.28 1220.94 1050.94 1220.63C1053.78 1219.27 1060.33 1221.94 1060.61 1222.05C1060.79 1222.13 1060.91 1222.3 1060.92 1222.5C1060.93 1222.7 1060.81 1222.88 1060.64 1222.97C1059.64 1223.45 1057.51 1224.25 1055.39 1224.71ZM1051.95 1221.34C1051.74 1221.39 1051.54 1221.45 1051.37 1221.53C1050.97 1221.72 1050.72 1222 1050.61 1222.39C1050.34 1223.29 1050.67 1223.57 1050.78 1223.66C1051.92 1224.63 1056.13 1223.74 1059.1 1222.55C1057.09 1221.84 1053.83 1220.93 1051.95 1221.34Z" />
			<path id="&lt;Compound Path&gt;" fill-rule="evenodd" class="shp7" d="M1060.53 1223C1060.45 1223.02 1060.36 1223.02 1060.28 1222.99C1057.89 1222.3 1052.79 1218.67 1052.73 1216.28C1052.72 1215.85 1052.87 1215.06 1054.01 1214.66C1054.75 1214.4 1055.49 1214.47 1056.22 1214.84C1059.04 1216.28 1060.82 1222.12 1060.9 1222.37C1060.95 1222.55 1060.9 1222.74 1060.77 1222.87C1060.7 1222.94 1060.62 1222.98 1060.53 1223ZM1054.55 1215.54C1054.48 1215.56 1054.41 1215.58 1054.33 1215.61C1053.72 1215.82 1053.73 1216.12 1053.73 1216.25C1053.76 1217.67 1057.13 1220.51 1059.6 1221.67C1058.99 1219.98 1057.58 1216.65 1055.77 1215.73C1055.35 1215.52 1054.96 1215.46 1054.55 1215.54Z" />
			<path id="&lt;Compound Path&gt;" fill-rule="evenodd" class="shp7" d="M899.59 1228.25C896.89 1228.25 894.27 1227.88 893.39 1226.66C893.09 1226.24 892.84 1225.51 893.44 1224.48C893.76 1223.9 894.3 1223.5 895.02 1223.31C898.53 1222.35 905.9 1226.56 906.22 1226.74C906.4 1226.84 906.5 1227.04 906.46 1227.25C906.43 1227.46 906.27 1227.62 906.07 1227.66C904.72 1227.93 902.12 1228.25 899.59 1228.25ZM896.25 1224.16C895.9 1224.16 895.57 1224.2 895.28 1224.27C894.82 1224.4 894.5 1224.63 894.3 1224.97C893.95 1225.59 894.08 1225.9 894.21 1226.08C895.19 1227.44 900.52 1227.47 904.44 1226.92C902.49 1225.91 898.71 1224.16 896.25 1224.16Z" />
			<path id="&lt;Compound Path&gt;" fill-rule="evenodd" class="shp7" d="M905.97 1227.67C905.9 1227.67 905.83 1227.65 905.76 1227.62C903.22 1226.48 898.17 1221.92 898.56 1219.53C898.65 1218.97 899.05 1218.27 900.42 1218.14C901.44 1218.03 902.37 1218.32 903.19 1218.99C905.87 1221.2 906.44 1226.88 906.47 1227.12C906.48 1227.3 906.4 1227.47 906.26 1227.57C906.17 1227.64 906.07 1227.67 905.97 1227.67ZM900.82 1219.11C900.72 1219.11 900.62 1219.12 900.52 1219.13C899.62 1219.22 899.56 1219.57 899.54 1219.69C899.31 1221.12 902.74 1224.71 905.34 1226.27C905.07 1224.61 904.32 1221.21 902.55 1219.76C902.02 1219.33 901.45 1219.11 900.82 1219.11Z" />
			<path id="&lt;Path&gt;" class="shp11" d="M929.17 1227.17L908.07 1227.17L905.97 1178.3L927.07 1178.3L929.17 1227.17Z" />
			<path id="&lt;Path&gt;" class="shp11" d="M1084.05 1217.4L1063.42 1221.86L1042.72 1176.35L1063.34 1171.88L1084.05 1217.4Z" />
			<path id="&lt;Path&gt;" class="shp10" d="M1061.44 1219.79L1084.61 1214.78C1085.45 1214.6 1086.31 1215.02 1086.67 1215.81L1094.71 1233.26C1095.55 1235.07 1094.44 1237.19 1092.49 1237.58C1084.37 1239.19 1080.34 1239.57 1070.15 1241.77C1063.88 1243.13 1049.73 1246.58 1041.07 1248.45C1032.61 1250.28 1029.43 1242.01 1032.81 1240.47C1047.95 1233.55 1054.27 1227.46 1058.37 1221.79C1059.11 1220.76 1060.21 1220.06 1061.44 1219.79Z" />
			<path id="&lt;Path&gt;" class="shp10" d="M908.21 1224.73L931.25 1224.73C932.12 1224.73 932.86 1225.32 933.05 1226.17L937.22 1244.92C937.65 1246.87 936.17 1248.71 934.18 1248.68C925.87 1248.53 913.86 1248.05 903.41 1248.05C891.19 1248.05 880.64 1248.71 866.32 1248.71C857.65 1248.71 855.25 1239.96 858.88 1239.16C875.38 1235.55 888.86 1235.16 903.13 1226.37C904.68 1225.41 906.39 1224.73 908.21 1224.73Z" />
			<g id="&lt;Group&gt;">
				<path id="&lt;Path&gt;" class="shp7" d="M993.5 506.95C1006.68 509.97 1018.71 528.31 1029.58 561.97L989.87 592.24C980.15 583.08 973.13 570.08 968.8 553.24C962.01 526.78 973.28 502.31 993.5 506.95Z" />
				<path id="&lt;Path&gt;" class="shp14" d="M993.5 506.95C1006.68 509.97 1018.71 528.31 1029.58 561.97L989.87 592.24C980.15 583.08 973.13 570.08 968.8 553.24C962.01 526.78 973.28 502.31 993.5 506.95Z" />
			</g>
			<path id="&lt;Path&gt;" class="shp11" d="M889.5 567.2C884.57 572.53 879.65 577.26 874.55 582.14C872.02 584.56 869.44 586.94 866.79 589.27L862.81 592.76L861.81 593.63C861.32 594.04 860.73 594.54 860.1 595.02C858.77 596 857.33 597.14 854.3 598.44C852.69 599.06 850.63 599.88 847 599.95C845.28 599.98 842.94 599.68 840.7 598.83C838.42 597.99 836.21 596.53 834.7 595.02C831.56 591.87 830.61 589.1 830 587.25C829.42 585.34 829.26 583.98 829.14 582.79C828.95 580.46 829.07 578.88 829.2 577.43C829.34 575.99 829.54 574.74 829.76 573.56C830.64 568.94 831.89 565.21 833.24 561.47C834.61 557.77 836.13 554.22 837.9 550.63C839.81 546.81 841.65 544.03 843.48 540.84C850.89 528.45 859.59 517.13 868.83 506.47C878.28 495.87 888.19 486.19 899.59 477.31L910.63 488.68C902.87 499.05 895.25 510.17 888.2 521.14C881.16 532.19 874.63 543.44 869 554.88C867.71 557.7 866.11 560.8 865.21 563.16C864.16 565.75 863.19 568.52 862.4 571.25C861.61 573.96 860.98 576.77 860.69 578.83C860.63 579.33 860.6 579.77 860.6 580.02C860.59 580.25 860.65 580.38 860.62 579.74C860.59 579.39 860.56 578.87 860.23 577.78C859.87 576.73 859.3 574.75 856.77 572.2C855.55 571 853.72 569.75 851.83 569.07C849.99 568.35 848.08 568.14 846.78 568.15C844 568.21 842.76 568.77 841.94 569.07C840.47 569.7 840.44 569.88 840.45 569.81L841.6 568.76L845.21 565.46L852.38 558.74C857.13 554.27 861.9 549.5 866.41 545.07L889.5 567.2Z" />
			<path id="&lt;Path&gt;" class="shp13" d="M976.55 544.08C987.29 554.7 990.8 574.06 991.63 590.89L989.88 592.24C980.15 583.07 973.12 570.07 968.79 553.24C968.39 551.66 968.05 550.08 967.76 548.53L976.55 544.08Z" />
			<g id="&lt;Group&gt;">
				<path id="&lt;Path&gt;" class="shp7" d="M868.52 528.1C864.21 550.9 861.51 597.71 874.03 690.42L986.9 690.42C987.68 673.1 976.79 588.58 993.5 506.95C980.6 504.36 968.01 502.77 955.72 502.18C941.3 501.48 920.42 501.02 907.74 502.18C902.45 502.66 897.25 503.42 892.63 504.24C880.42 506.4 870.83 515.93 868.52 528.1Z" />
				<path id="&lt;Path&gt;" class="shp14" d="M868.52 528.1C864.21 550.9 861.51 597.71 874.03 690.42L986.9 690.42C987.68 673.1 976.79 588.58 993.5 506.95C980.6 504.36 968.01 502.77 955.72 502.18C941.3 501.48 920.42 501.02 907.74 502.18C902.45 502.66 897.25 503.42 892.63 504.24C880.42 506.4 870.83 515.93 868.52 528.1Z" />
			</g>
			<path id="&lt;Path&gt;" class="shp13" d="M885.8 561.8L865.4 556.91C864.77 569.27 864.71 584.58 865.63 603.5C875.02 592.82 887 576.16 885.8 561.8Z" />
			<g id="&lt;Group&gt;">
				<path id="&lt;Path&gt;" class="shp13" d="M905.97 1178.32L907.05 1203.5L928.16 1203.5L927.08 1178.32L905.97 1178.32Z" />
				<path id="&lt;Path&gt;" class="shp13" d="M1063.35 1171.9L1042.72 1176.36L1053.4 1199.82L1074.04 1195.35L1063.35 1171.9Z" />
			</g>
			<path id="&lt;Path&gt;" class="shp11" d="M959.8 432.47C954.38 452.69 952.24 464.81 939.75 473.22C920.98 485.87 897.6 471.35 896.87 449.91C896.21 430.61 905.18 400.77 926.89 396.7C948.28 392.68 965.22 412.24 959.8 432.47Z" />
			<path id="&lt;Path&gt;" class="shp10" d="M912.44 433.24C911.44 430.53 906.77 409.62 911.15 404.2C915.54 398.77 965.49 402.67 972.87 409.94C985.13 422 976.63 432.76 963.21 446.65C953.12 457.08 952.74 468.85 947.65 470.58C938.73 473.61 924.91 470.76 922.13 461.24C920.28 454.9 917.05 445.56 912.44 433.24Z" />
			<path id="&lt;Path&gt;" class="shp10" d="M966.82 386.17C949.17 378.65 916.07 386.96 898.2 382.66C897.56 391.91 903.14 406.75 921.01 410.74C937.93 414.04 952.93 415.42 966.02 414.89C985.64 414.09 981.81 392.55 966.82 386.17Z" />
			<path id="&lt;Path&gt;" class="shp10" d="M969.58 410.58C976.86 411.4 983.08 410.21 988.25 407C991.56 414.98 973.42 417.17 969.58 410.58Z" />
			<path id="&lt;Path&gt;" class="shp11" d="M922.06 434.07C921.73 439.55 919.19 444.7 916.13 448.07C911.53 453.14 906.73 449.98 905.92 443.81C905.18 438.25 906.69 428.92 912.32 426.13C917.86 423.37 922.44 427.81 922.06 434.07Z" />
			<path id="&lt;Path&gt;" class="shp7" d="M914.07 690.42C930.04 797.93 942.4 871.82 951.16 912.09C960.76 956.2 991.29 1051.21 1042.76 1197.14L1080.53 1188.96C1044.55 1070.04 1022.52 979.75 1014.47 918.09C1008.28 870.73 999.09 794.84 986.9 690.42L914.07 690.42Z" />
			<path id="&lt;Path&gt;" class="shp10" d="M1033.71 1184.53C1033.61 1184.55 1035.95 1189.1 1040.75 1198.19L1083.25 1188.98L1079.67 1176.21L1033.71 1184.53Z" />
			<path id="&lt;Path&gt;" class="shp15" d="M929.21 747.88C956.9 753.31 953.97 856.57 950.63 909.68C942.65 872.13 930.96 799.9 922.97 748.62C924.81 747.7 926.88 747.42 929.21 747.88Z" />
			<path id="&lt;Path&gt;" class="shp7" d="M874.03 690.42C872.1 795.6 871.89 869.64 873.42 912.54C875.02 957.16 883.6 1052.52 899.19 1198.63L934.94 1198.63C935.81 1055.13 936.78 961.47 937.84 917.65C938.99 869.87 942.46 794.13 948.22 690.42L874.03 690.42Z" />
			<path id="&lt;Path&gt;" class="shp10" d="M892.31 1184.39C892.2 1184.39 892.87 1189.33 894.33 1199.23L937.81 1199.23L938.99 1185.98L892.31 1184.39Z" />
			<g id="&lt;Group&gt;">
				<path id="&lt;Path&gt;" class="shp7" d="M912.75 535.03C919.5 553.21 903.06 573 863.43 594.41L837.7 561.33C849.14 538.55 861.89 522.02 875.93 511.75C901.96 492.72 905.05 514.27 912.75 535.03Z" />
				<path id="&lt;Path&gt;" class="shp14" d="M912.75 535.03C919.5 553.21 903.06 573 863.43 594.41L837.7 561.33C849.14 538.55 861.89 522.02 875.93 511.75C901.96 492.72 905.05 514.27 912.75 535.03Z" />
			</g>
		</g>
	</g>
	<g id="Thinking">
		<g id="&lt;Group&gt;">
			<path id="&lt;Path&gt;" class="shp7" d="M1253.88 259C1253.88 297.11 1205.41 328 1145.62 328C1085.83 328 1037.36 297.11 1037.36 259C1037.36 220.89 1085.83 190 1145.62 190C1205.41 190 1253.88 220.89 1253.88 259Z" />
			<path id="&lt;Compound Path&gt;" fill-rule="evenodd" class="shp3" d="M1106.54 293.73C1100.52 293.73 1094.65 291.93 1089.55 288.45C1082.71 283.79 1078.17 276.72 1076.75 268.55C1074.06 252.93 1084.43 237.37 1099.88 233.86C1112.6 230.97 1125.52 236.39 1132.35 247.4L1201.85 233.06C1207.48 231.9 1213.2 235.26 1214.59 240.55C1215.33 243.37 1214.89 246.27 1213.36 248.74C1211.83 251.2 1209.42 252.88 1206.58 253.47L1204.76 253.84C1204.21 253.96 1203.76 254.29 1203.5 254.77C1203.24 255.25 1203.2 255.82 1203.4 256.33L1204.62 259.51C1205.45 261.67 1204.68 264.1 1202.77 265.28C1201.29 266.2 1200.28 267.79 1200.08 269.52C1199.83 271.65 1198.42 273.28 1196.47 273.69L1195.04 273.98C1193.09 274.38 1191.15 273.45 1190.07 271.59C1188.82 269.43 1186.33 268.31 1183.87 268.82C1181.4 269.33 1179.54 271.34 1179.24 273.83C1178.99 275.95 1177.57 277.59 1175.63 277.99L1174.23 278.27C1172.31 278.67 1170.34 277.74 1169.26 275.89C1168.39 274.38 1166.83 273.32 1165.09 273.06C1162.87 272.73 1161.2 270.81 1161.1 268.49L1160.96 265.08C1160.94 264.53 1160.69 264.04 1160.26 263.7C1159.82 263.36 1159.3 263.23 1158.74 263.34L1136.59 267.91C1134.71 280.46 1125.25 290.51 1112.74 293.09C1110.67 293.52 1108.6 293.73 1106.54 293.73ZM1100.54 236.78C1086.63 239.94 1077.28 253.97 1079.71 268.04C1080.98 275.41 1085.08 281.77 1091.24 285.97C1097.41 290.18 1104.82 291.66 1112.13 290.15C1123.73 287.76 1132.42 278.25 1133.75 266.49L1133.87 265.41L1158.13 260.4C1159.53 260.11 1160.98 260.45 1162.1 261.33C1163.23 262.21 1163.91 263.54 1163.96 264.96L1164.1 268.37C1164.13 269.24 1164.75 269.98 1165.53 270.09C1168.2 270.49 1170.51 272.05 1171.86 274.38C1172.19 274.95 1172.82 275.5 1173.62 275.34L1175.02 275.05C1175.82 274.88 1176.19 274.13 1176.27 273.47C1176.71 269.7 1179.53 266.65 1183.27 265.88C1186.99 265.11 1190.77 266.8 1192.67 270.09C1193 270.66 1193.63 271.21 1194.43 271.04L1195.86 270.75C1196.66 270.58 1197.02 269.83 1197.1 269.18C1197.41 266.5 1198.9 264.16 1201.19 262.73C1201.86 262.32 1202.13 261.4 1201.82 260.59L1200.59 257.4C1200.08 256.07 1200.18 254.58 1200.87 253.33C1201.55 252.08 1202.75 251.19 1204.15 250.91L1205.97 250.53C1208 250.11 1209.72 248.91 1210.81 247.15C1211.9 245.4 1212.21 243.32 1211.69 241.31C1210.7 237.53 1206.55 235.15 1202.46 236L1130.85 250.78L1130.31 249.83C1124.3 239.35 1112.36 234.1 1100.54 236.78ZM1106.58 282.64C1102.86 282.64 1099.23 281.56 1096.05 279.47C1091.77 276.65 1088.83 272.33 1087.8 267.3C1086.76 262.27 1087.74 257.14 1090.56 252.85C1093.38 248.57 1097.7 245.64 1102.73 244.61C1107.76 243.57 1112.9 244.54 1117.18 247.36C1121.46 250.18 1124.39 254.5 1125.43 259.54C1126.47 264.56 1125.49 269.69 1122.67 273.98C1119.86 278.27 1115.53 281.2 1110.49 282.24C1109.19 282.51 1107.88 282.64 1106.58 282.64ZM1106.67 247.2C1105.56 247.2 1104.45 247.32 1103.33 247.54C1099.09 248.42 1095.45 250.89 1093.07 254.5C1090.69 258.12 1089.86 262.45 1090.73 266.7C1091.61 270.94 1094.08 274.58 1097.7 276.97C1101.32 279.35 1105.65 280.18 1109.89 279.3C1114.14 278.42 1117.79 275.95 1120.17 272.33C1122.54 268.71 1123.37 264.39 1122.49 260.14C1121.61 255.89 1119.14 252.24 1115.53 249.87C1112.86 248.11 1109.8 247.2 1106.67 247.2Z" />
			<path id="&lt;Path&gt;" class="shp9" d="M1093.07 345.77C1093.07 358.3 1077.14 368.45 1057.49 368.45C1037.83 368.45 1021.9 358.3 1021.9 345.77C1021.9 333.25 1037.83 323.1 1057.49 323.1C1077.14 323.1 1093.07 333.25 1093.07 345.77Z" />
			<path id="&lt;Path&gt;" class="shp16" d="M1015.49 368.45C1015.49 373.59 1008.95 377.76 1000.89 377.76C992.82 377.76 986.28 373.59 986.28 368.45C986.28 363.31 992.82 359.14 1000.89 359.14C1008.95 359.14 1015.49 363.31 1015.49 368.45Z" />
		</g>
	</g>
</svg>